<?xml version="1.0" encoding="UTF-8"?>
<svg width="1024" height="1024" viewBox="0 0 1024 1024" xmlns="http://www.w3.org/2000/svg">
  <!-- CG Monogram -->
  <g transform="translate(512, 512)">
    <!-- Letter C -->
    <path d="M -120 -80 Q -120 -120 -80 -120 L 40 -120 Q 80 -120 80 -80 L 80 80 Q 80 120 40 120 L -80 120 Q -120 120 -120 80 L -120 -80 Z M -80 -80 L -80 80 L 40 80 L 40 -80 L -80 -80 Z" fill="#FFFFFF" stroke="#FFFFFF" stroke-width="8"/>
    
    <!-- Letter G -->
    <path d="M 120 -80 Q 120 -120 160 -120 L 280 -120 Q 320 -120 320 -80 L 320 0 L 200 0 L 200 40 L 280 40 L 280 80 Q 280 120 240 120 L 160 120 Q 120 120 120 80 L 120 -80 Z M 160 -80 L 160 80 L 240 80 L 240 40 L 200 40 L 200 -80 L 160 -80 Z" fill="#FFFFFF" stroke="#FFFFFF" stroke-width="8"/>
  </g>
  
  <!-- Orange Tactic Arrow -->
  <g transform="translate(700, 300) rotate(45)">
    <path d="M 0 0 L 60 0 L 50 -10 L 80 20 L 50 50 L 60 40 L 0 40 Z" fill="#FFB000"/>
    <circle cx="20" cy="20" r="8" fill="#FFB000"/>
  </g>
</svg>
